<?xml version="1.0" encoding="UTF-8" standalone="no"?>
<!-- Created with Inkscape (http://www.inkscape.org/) -->

<svg
   xmlns:dc="http://purl.org/dc/elements/1.1/"
   xmlns:cc="http://creativecommons.org/ns#"
   xmlns:rdf="http://www.w3.org/1999/02/22-rdf-syntax-ns#"
   xmlns:svg="http://www.w3.org/2000/svg"
   xmlns="http://www.w3.org/2000/svg"
   xmlns:sodipodi="http://sodipodi.sourceforge.net/DTD/sodipodi-0.dtd"
   xmlns:inkscape="http://www.inkscape.org/namespaces/inkscape"
   width="300"
   height="300"
   viewBox="0 0 79.374998 79.375002"
   version="1.1"
   id="svg821"
   inkscape:export-filename="/home/andrew/repos_main/fabricate/logo.png"
   inkscape:export-xdpi="200"
   inkscape:export-ydpi="200"
   inkscape:version="0.92.5 (2060ec1f9f, 2020-04-08)"
   sodipodi:docname="logo.svg">
  <defs
     id="defs815" />
  <sodipodi:namedview
     id="base"
     pagecolor="#ffffff"
     bordercolor="#666666"
     borderopacity="1.0"
     inkscape:pageopacity="0.0"
     inkscape:pageshadow="2"
     inkscape:zoom="1"
     inkscape:cx="-54.285714"
     inkscape:cy="320"
     inkscape:document-units="mm"
     inkscape:current-layer="layer1"
     showgrid="false"
     units="px"
     inkscape:window-width="1892"
     inkscape:window-height="1127"
     inkscape:window-x="14"
     inkscape:window-y="14"
     inkscape:window-maximized="0" />
  <metadata
     id="metadata818">
    <rdf:RDF>
      <cc:Work
         rdf:about="">
        <dc:format>image/svg+xml</dc:format>
        <dc:type
           rdf:resource="http://purl.org/dc/dcmitype/StillImage" />
        <dc:title></dc:title>
      </cc:Work>
    </rdf:RDF>
  </metadata>
  <g
     inkscape:groupmode="layer"
     id="layer2"
     inkscape:label="Layer 2"
     sodipodi:insensitive="true">
    <rect
       style="fill:#ecd8d8;fill-opacity:1;fill-rule:evenodd;stroke-width:0.26458332"
       id="rect1389"
       width="80.168747"
       height="79.63958"
       x="0"
       y="0.26458332" />
  </g>
  <g
     inkscape:label="Layer 1"
     inkscape:groupmode="layer"
     id="layer1"
     transform="translate(0,-217.62498)">
    <path
       inkscape:connector-curvature="0"
       id="path1378"
       style="font-style:normal;font-variant:normal;font-weight:800;font-stretch:normal;font-size:52.91667175px;line-height:0.69999999;font-family:Manrope;-inkscape-font-specification:'Manrope Ultra-Bold';text-align:center;letter-spacing:-2.64583325px;word-spacing:0px;text-anchor:middle;fill:#dc4032;fill-opacity:1;stroke:none;stroke-width:0.26458332"
       d="m 7.9584977,276.36249 v -28.46917 q 0,-1.08479 0.052917,-2.46063 0.052917,-1.37583 0.4233334,-2.77812 0.396875,-1.40229 1.4287501,-2.54 1.3229178,-1.48167 2.8575008,-2.01084 1.561042,-0.55562 3.01625,-0.58208 1.455209,-0.0529 2.487084,-0.0529 h 3.545417 v 5.82084 h -3.280834 q -1.693333,0 -2.513542,0.87312 -0.820208,0.84667 -0.820208,2.03729 v 30.16251 z M 3.4605806,253.34374 v -5.55625 H 21.76975 v 5.55625 z" />
    <path
       inkscape:connector-curvature="0"
       id="path1380"
       style="font-style:normal;font-variant:normal;font-weight:800;font-stretch:normal;font-size:52.91667175px;line-height:0.69999999;font-family:Manrope;-inkscape-font-specification:'Manrope Ultra-Bold';text-align:center;letter-spacing:-2.64583325px;word-spacing:0px;text-anchor:middle;fill:#dc4032;fill-opacity:1;stroke:none;stroke-width:0.26458332"
       d="m 31.030082,277.15624 q -3.069167,0 -5.212292,-1.16417 -2.116667,-1.19062 -3.227917,-3.14854 -1.084792,-1.98438 -1.084792,-4.36563 0,-1.98437 0.608542,-3.62479 0.608542,-1.64042 1.957917,-2.88396 1.375833,-1.27 3.677708,-2.11666 1.587501,-0.58209 3.783543,-1.03188 2.196041,-0.44979 4.974167,-0.84667 2.778125,-0.42333 6.111875,-0.92604 l -2.592917,1.42875 q 0,-2.54 -1.217083,-3.73062 -1.217084,-1.19063 -4.074584,-1.19063 -1.5875,0 -3.307292,0.76729 -1.719792,0.7673 -2.407708,2.72521 l -6.508751,-2.06375 q 1.084792,-3.54541 4.074584,-5.76791 2.989792,-2.22251 8.149167,-2.22251 3.783542,0 6.720417,1.16417 2.936876,1.16417 4.445001,4.02167 0.846667,1.5875 1.005417,3.175 0.15875,1.5875 0.15875,3.54542 v 17.4625 H 40.76675 v -5.87375 l 0.899583,1.21708 q -2.090208,2.88396 -4.524375,4.18042 -2.407709,1.27 -6.111876,1.27 z m 1.534584,-5.66209 q 1.984375,0 3.33375,-0.68791 1.375833,-0.71438 2.169583,-1.61396 0.820209,-0.89958 1.111251,-1.50813 0.555625,-1.16416 0.635,-2.69875 0.105833,-1.56104 0.105833,-2.59291 l 2.116667,0.52916 q -3.201459,0.52917 -5.185834,0.89959 -1.984375,0.34395 -3.201459,0.635 -1.217083,0.29104 -2.143125,0.635 -1.058333,0.42333 -1.719792,0.92604 -0.635,0.47625 -0.9525,1.05833 -0.291041,0.58209 -0.291041,1.29646 0,0.97896 0.47625,1.69333 0.502708,0.68792 1.402291,1.05834 0.899584,0.37041 2.143126,0.37041 z" />
    <path
       inkscape:connector-curvature="0"
       id="path1382"
       style="font-style:normal;font-variant:normal;font-weight:800;font-stretch:normal;font-size:52.91667175px;line-height:0.69999999;font-family:Manrope;-inkscape-font-specification:'Manrope Ultra-Bold';text-align:center;letter-spacing:-2.64583325px;word-spacing:0px;text-anchor:middle;fill:#dc4032;fill-opacity:1;stroke:none;stroke-width:0.26458332"
       d="m 64.261662,277.15624 q -4.259792,0 -7.117293,-1.98438 -2.8575,-1.98437 -4.312708,-5.3975 -1.42875,-3.41312 -1.42875,-7.69937 0,-4.28625 1.42875,-7.69938 1.42875,-3.41312 4.206875,-5.3975 2.778125,-1.98438 6.852709,-1.98438 4.101042,0 7.143751,1.95792 3.042708,1.95792 4.709584,5.37104 1.693333,3.38667 1.693333,7.7523 0,4.28625 -1.666875,7.69937 -1.640417,3.41313 -4.603751,5.3975 -2.963333,1.98438 -6.905625,1.98438 z m -14.075835,-0.79375 v -38.10001 h 7.249584 v 18.52084 h -0.899583 v 19.57917 z m 12.911668,-5.60917 q 2.328334,0 3.81,-1.16417 1.481667,-1.16416 2.196042,-3.12208 0.714375,-1.98438 0.714375,-4.39208 0,-2.38125 -0.740833,-4.33917 -0.740833,-1.98438 -2.301875,-3.14854 -1.534584,-1.19063 -3.942292,-1.19063 -2.248959,0 -3.651251,1.08479 -1.375833,1.0848 -2.010833,3.04271 -0.635,1.95792 -0.635,4.55084 0,2.59291 0.635,4.55083 0.635,1.95792 2.06375,3.04271 1.455208,1.08479 3.862917,1.08479 z" />
  </g>
</svg>
